<?xml version="1.0" encoding="utf-8"?>
<!-- Generator: Adobe Illustrator 21.0.0, SVG Export Plug-In . SVG Version: 6.00 Build 0)  -->
<svg version="1.1" id="圖層_1" xmlns="http://www.w3.org/2000/svg" xmlns:xlink="http://www.w3.org/1999/xlink" x="0px" y="0px"
	 width="500px" height="500px" viewBox="0 0 500 500" style="enable-background:new 0 0 500 500;" xml:space="preserve">
<style type="text/css">
	.st0{display:none;fill:none;stroke:#303030;stroke-width:10;stroke-miterlimit:10;}
	.st1{fill:#303030;}
</style>
<circle class="st0" cx="250.6" cy="249.9" r="207.1"/>
<g>
	<g>
		<path class="st1" d="M54.6,123.2c70.3-0.3,140.6-0.6,210.9-0.8c64.6-0.3,129.2-0.5,193.8-0.8c30.2-0.1,30.2-47,0-46.8
			c-70.3,0.3-140.6,0.6-210.9,0.8c-64.6,0.3-129.2,0.5-193.8,0.8C24.4,76.5,24.4,123.3,54.6,123.2L54.6,123.2z"/>
	</g>
</g>
<g>
	<g>
		<path class="st1" d="M54.6,273.1c76.9-0.4,153.8-0.8,230.7-1.2c28.2-0.1,56.3-0.3,84.5-0.4c30.2-0.2,30.2-47,0-46.8
			c-76.9,0.4-153.8,0.8-230.7,1.2c-28.2,0.1-56.3,0.3-84.5,0.4C24.4,226.4,24.4,273.3,54.6,273.1L54.6,273.1z"/>
	</g>
</g>
<g>
	<g>
		<path class="st1" d="M54.6,426.7c70.3-0.3,140.6-0.6,210.9-0.8c64.6-0.3,129.2-0.5,193.8-0.8c30.2-0.1,30.2-47,0-46.8
			c-70.3,0.3-140.6,0.6-210.9,0.8c-64.6,0.3-129.2,0.5-193.8,0.8C24.4,380,24.4,426.8,54.6,426.7L54.6,426.7z"/>
	</g>
</g>
</svg>
