<?xml version="1.0" encoding="utf-8"?>
<!-- Generator: Adobe Illustrator 16.0.0, SVG Export Plug-In . SVG Version: 6.00 Build 0)  -->
<!DOCTYPE svg PUBLIC "-//W3C//DTD SVG 1.1//EN" "http://www.w3.org/Graphics/SVG/1.1/DTD/svg11.dtd">
<svg version="1.1" xmlns="http://www.w3.org/2000/svg" xmlns:xlink="http://www.w3.org/1999/xlink" x="0px" y="0px" width="720px"
	 height="576px" viewBox="0 0 720 576" enable-background="new 0 0 720 576" xml:space="preserve">
<g id="圖層_2">
	<circle fill="#51A3A3" stroke="#160707" stroke-width="0.74" stroke-miterlimit="10" cx="380.163" cy="316.602" r="186.418"/>
</g>
<g id="圖層_1">
	<g>
		<g>
			<defs>
				<rect id="SVGID_1_" x="197.306" y="167.552" width="355.714" height="295.714"/>
			</defs>
			<clipPath id="SVGID_2_">
				<use xlink:href="#SVGID_1_"  overflow="visible"/>
			</clipPath>
			<g clip-path="url(#SVGID_2_)">
				<defs>
					<rect id="SVGID_3_" x="197.306" y="167.552" width="355.714" height="295.714"/>
				</defs>
				<clipPath id="SVGID_4_">
					<use xlink:href="#SVGID_3_"  overflow="visible"/>
				</clipPath>
				<g clip-path="url(#SVGID_4_)">
					<defs>
						<rect id="SVGID_5_" x="197.306" y="167.552" width="355.714" height="295.714"/>
					</defs>
					<clipPath id="SVGID_6_">
						<use xlink:href="#SVGID_5_"  overflow="visible"/>
					</clipPath>
					<path clip-path="url(#SVGID_6_)" fill="#321C10" d="M381.019,382.551c-48.57,35.714-127.143,17.143-108.57,11.429
						l17.142-12.856c-35.714,15.714-58.571-11.43-58.571-11.43c12.857,2.857,21.429,0,21.429,0
						c-11.429-1.429-28.572-32.856-28.572-32.856s15.714,8.435,30,0c37.143-37.144-1.428-44.286,34.286-94.287
						c35.714-50,92.856-37.143,92.856-37.143"/>
					<path clip-path="url(#SVGID_6_)" fill="#321C10" d="M379.642,205.408c4.922-1.108,52.221-19.749,92.856,37.143
						c35.715,50-2.857,57.143,34.287,94.285c14.286,8.436,30,0,30,0s-17.144,31.429-28.572,32.858c0,0,8.572,2.856,21.429,0
						c0,0-22.856,27.143-58.57,11.428l17.142,12.857c18.572,5.715-60,24.285-108.571-11.43"/>
				</g>
				<g clip-path="url(#SVGID_4_)">
					<defs>
						<rect id="SVGID_7_" x="197.306" y="167.552" width="355.714" height="295.714"/>
					</defs>
					<clipPath id="SVGID_8_">
						<use xlink:href="#SVGID_7_"  overflow="visible"/>
					</clipPath>
					<path clip-path="url(#SVGID_8_)" fill="#F6E2D0" d="M466.534,340.515c0,46.885-51.414,84.893-84.893,84.893
						c-33.48,0-84.893-38.008-84.893-84.893c0-46.886,12.658-84.682,84.893-84.895C453.876,255.408,466.534,293.629,466.534,340.515
						"/>
					<path clip-path="url(#SVGID_8_)" fill="none" stroke="#FFFFFF" stroke-miterlimit="10" d="M466.534,340.515
						c0,46.885-51.414,84.893-84.893,84.893c-33.48,0-84.893-38.008-84.893-84.893c0-46.886,12.658-84.682,84.893-84.895
						C453.876,255.408,466.534,293.629,466.534,340.515z"/>
				</g>
				<g clip-path="url(#SVGID_4_)">
					<defs>
						<rect id="SVGID_9_" x="197.306" y="167.552" width="355.714" height="295.714"/>
					</defs>
					<clipPath id="SVGID_10_">
						<use xlink:href="#SVGID_9_"  overflow="visible"/>
					</clipPath>
					<path clip-path="url(#SVGID_10_)" fill="#321C10" d="M356.035,317.86c-7.094-10.291-28.852-13.59-35.317-1
						c-1.471,2.862,2.844,5.394,4.317,2.523c4.603-8.963,21.596-6.378,26.683,1C353.535,323.02,357.87,320.523,356.035,317.86"/>
					<path clip-path="url(#SVGID_10_)" fill="#321C10" d="M351.876,343.818c0,6.795-4.477,12.304-10,12.304s-10-5.509-10-12.304
						s4.477-12.305,10-12.305S351.876,337.023,351.876,343.818"/>
					<path clip-path="url(#SVGID_10_)" fill="#FFFFFF" d="M338.876,338.872c0,1.243-1.007,2.25-2.25,2.25s-2.25-1.007-2.25-2.25
						s1.007-2.25,2.25-2.25S338.876,337.629,338.876,338.872"/>
					
						<circle clip-path="url(#SVGID_10_)" fill="none" stroke="#231F20" stroke-miterlimit="10" cx="336.626" cy="338.872" r="2.25"/>
					<path clip-path="url(#SVGID_10_)" fill="#321C10" d="M332.823,338.559c-2.445-0.102-4.571-1.987-5.998-3.824
						c-0.524-0.676-3.075,0.549-2.898,0.776c1.745,2.246,4.069,4.055,7.002,4.176c0.676,0.028,1.472-0.205,2.049-0.549
						C333.459,338.851,333.359,338.58,332.823,338.559"/>
					<path clip-path="url(#SVGID_10_)" fill="#321C10" d="M335.265,335.841c-1.986-0.538-3.193-2.301-3.94-4.106
						c-0.415-1.006-3.269-0.122-2.897,0.775c0.978,2.366,2.527,4.207,5.06,4.894c0.651,0.177,1.555-0.115,2.048-0.549
						C336.019,336.43,335.836,335.996,335.265,335.841"/>
					<path clip-path="url(#SVGID_10_)" fill="#C62127" d="M365.876,382.122h30.641c0,0-2.999,19.5-15.32,19.5
						C368.876,401.622,365.876,382.122,365.876,382.122"/>
					<path clip-path="url(#SVGID_10_)" fill="#321C10" d="M412.034,320.384c5.087-7.379,22.08-9.964,26.685-1
						c1.472,2.869,5.787,0.339,4.315-2.522c-6.465-12.59-28.223-9.291-35.315,1C405.883,320.523,410.219,323.021,412.034,320.384"/>
					<path clip-path="url(#SVGID_10_)" fill="#321C10" d="M411.876,343.818c0,6.795,4.478,12.304,10,12.304
						c5.523,0,10-5.509,10-12.304s-4.477-12.305-10-12.305C416.354,331.514,411.876,337.023,411.876,343.818"/>
					<path clip-path="url(#SVGID_10_)" fill="#FFFFFF" d="M424.876,338.872c0,1.243,1.008,2.25,2.25,2.25s2.25-1.007,2.25-2.25
						s-1.008-2.25-2.25-2.25S424.876,337.629,424.876,338.872"/>
					
						<circle clip-path="url(#SVGID_10_)" fill="none" stroke="#231F20" stroke-miterlimit="10" cx="427.126" cy="338.872" r="2.25"/>
					<path clip-path="url(#SVGID_10_)" fill="#321C10" d="M430.929,339.687c3.613-0.149,6.684-2.009,8.874-4.83
						c0.304-0.392-1.084-0.244-1.146-0.232c-0.562,0.104-1.335,0.286-1.706,0.765c-0.891,1.146-2.54,3.104-4.126,3.17
						c-0.703,0.028-1.44,0.186-2.051,0.549C430.327,339.373,430.365,339.709,430.929,339.687"/>
					<path clip-path="url(#SVGID_10_)" fill="#321C10" d="M429.568,337.339c2.83-0.768,4.658-2.745,5.756-5.4
						c0.259-0.623-0.964-0.646-1.248-0.609c-0.62,0.078-1.391,0.354-1.648,0.978c-0.614,1.484-1.588,3.151-3.244,3.599
						c-0.405,0.11-1.418,0.505-1.257,1.105C428.089,337.609,429.164,337.448,429.568,337.339"/>
					
						<circle clip-path="url(#SVGID_10_)" fill="none" stroke="#1C100C" stroke-width="3" stroke-miterlimit="10" cx="339.263" cy="348.509" r="26.613"/>
					
						<circle clip-path="url(#SVGID_10_)" fill="none" stroke="#1C100C" stroke-width="3" stroke-miterlimit="10" cx="422.263" cy="348.509" r="26.613"/>
					<path clip-path="url(#SVGID_10_)" fill="#1C100C" d="M369.287,343.787c2.967-7.825,18.978-6.619,22.931-0.403
						c1.724,2.712,6.053,0.206,4.317-2.522c-6.429-10.109-27.517-10.414-32.069,1.597
						C363.321,345.478,368.156,346.771,369.287,343.787"/>
				</g>
				<g clip-path="url(#SVGID_4_)">
					<defs>
						<rect id="SVGID_11_" x="197.306" y="167.552" width="355.714" height="295.714"/>
					</defs>
					<clipPath id="SVGID_12_">
						<use xlink:href="#SVGID_11_"  overflow="visible"/>
					</clipPath>
					<g opacity="0.1" clip-path="url(#SVGID_12_)">
						<g>
							<defs>
								<rect id="SVGID_13_" x="313.651" y="322.896" width="51.225" height="51.227"/>
							</defs>
							<clipPath id="SVGID_14_">
								<use xlink:href="#SVGID_13_"  overflow="visible"/>
							</clipPath>
							<path clip-path="url(#SVGID_14_)" fill="#D36380" d="M364.876,348.509c0,14.146-11.466,25.613-25.612,25.613
								s-25.613-11.467-25.613-25.613c0-14.146,11.467-25.612,25.613-25.612S364.876,334.363,364.876,348.509"/>
						</g>
					</g>
					<g opacity="0.1" clip-path="url(#SVGID_12_)">
						<g>
							<defs>
								<rect id="SVGID_15_" x="396.65" y="322.67" width="51.452" height="51.452"/>
							</defs>
							<clipPath id="SVGID_16_">
								<use xlink:href="#SVGID_15_"  overflow="visible"/>
							</clipPath>
							<path clip-path="url(#SVGID_16_)" fill="#D36380" d="M448.103,348.396c0,14.208-11.519,25.728-25.727,25.728
								s-25.727-11.52-25.727-25.728s11.519-25.726,25.727-25.726S448.103,334.188,448.103,348.396"/>
						</g>
					</g>
				</g>
				<g clip-path="url(#SVGID_4_)">
					<defs>
						<rect id="SVGID_17_" x="197.306" y="167.552" width="355.714" height="295.714"/>
					</defs>
					<clipPath id="SVGID_18_">
						<use xlink:href="#SVGID_17_"  overflow="visible"/>
					</clipPath>
					<path clip-path="url(#SVGID_18_)" fill="#341C0F" d="M415.876,254.836c0,0-22.856,52.857-51.429,67.144
						c0,0,12.858-20,11.429-33.573c0,0-12.856,23.573-25.713,33.573c0,0,11.744-24.077,8.571-40c0,0-25.714,38.572-48.571,47.143
						c0,0-14.286,8.571-17.143,11.428C293.02,340.55,270.163,237.693,415.876,254.836"/>
				</g>
				<g clip-path="url(#SVGID_4_)">
					<defs>
						<rect id="SVGID_19_" x="197.306" y="167.552" width="355.714" height="295.714"/>
					</defs>
					<clipPath id="SVGID_20_">
						<use xlink:href="#SVGID_19_"  overflow="visible"/>
					</clipPath>
					<path clip-path="url(#SVGID_20_)" fill="#A09F9F" d="M471.876,356.122c0,0-11.5,47.789-62,47.789v-6.371
						c0,0,39.941,6.582,56.658-41.418H471.876z"/>
					<path clip-path="url(#SVGID_20_)" fill="#404040" d="M478.876,354.45c0,3.639-2.046,6.8-5.051,8.396
						c-1.327,0.705-2.842,1.104-4.449,1.104c-5.247,0-9.5-4.253-9.5-9.5v-27.873c0-5.246,4.253-9.5,9.5-9.5s9.5,4.254,9.5,9.5
						V354.45z"/>
					<path clip-path="url(#SVGID_20_)" fill="#545554" d="M415.876,400.997c0,5.04-5.015,9.125-11.2,9.125
						s-11.198-4.085-11.198-9.125s5.013-9.125,11.198-9.125S415.876,395.957,415.876,400.997"/>
				</g>
			</g>
		</g>
	</g>
</g>
</svg>
