<?xml version="1.0" encoding="utf-8"?>
<!-- Generator: Adobe Illustrator 21.0.0, SVG Export Plug-In . SVG Version: 6.00 Build 0)  -->
<svg version="1.1" id="Layer_1" xmlns="http://www.w3.org/2000/svg" xmlns:xlink="http://www.w3.org/1999/xlink" x="0px" y="0px"
	 width="500px" height="500px" viewBox="0 0 500 500" style="enable-background:new 0 0 500 500;" xml:space="preserve">
<style type="text/css">
	.st0{display:none;}
	.st1{display:inline;fill:#51A3A3;stroke:#160707;stroke-width:0.74;stroke-miterlimit:10;}
	.st2{clip-path:url(#SVGID_2_);}
	.st3{clip-path:url(#SVGID_4_);}
	.st4{clip-path:url(#SVGID_7_);}
	.st5{clip-path:url(#SVGID_8_);fill:#321C10;}
	.st6{clip-path:url(#SVGID_10_);}
	.st7{clip-path:url(#SVGID_13_);}
	.st8{clip-path:url(#SVGID_14_);fill:#F6E2D0;}
	.st9{clip-path:url(#SVGID_14_);fill:none;stroke:#FFFFFF;stroke-miterlimit:10;}
	.st10{clip-path:url(#SVGID_16_);}
	.st11{clip-path:url(#SVGID_33_);}
	.st12{clip-path:url(#SVGID_34_);}
	.st13{clip-path:url(#SVGID_35_);}
	.st14{clip-path:url(#SVGID_36_);}
	.st15{clip-path:url(#SVGID_37_);}
	.st16{clip-path:url(#SVGID_38_);}
	.st17{clip-path:url(#SVGID_39_);}
	.st18{clip-path:url(#SVGID_40_);}
	.st19{clip-path:url(#SVGID_41_);}
	.st20{clip-path:url(#SVGID_42_);}
	.st21{clip-path:url(#SVGID_43_);}
	.st22{clip-path:url(#SVGID_44_);}
	.st23{clip-path:url(#SVGID_45_);}
	.st24{clip-path:url(#SVGID_46_);}
	.st25{clip-path:url(#SVGID_47_);}
	.st26{clip-path:url(#SVGID_48_);fill:#321C10;}
	.st27{clip-path:url(#SVGID_48_);fill:#FFFFFF;}
	.st28{clip-path:url(#SVGID_48_);fill:none;stroke:#231F20;stroke-miterlimit:10;}
	.st29{clip-path:url(#SVGID_48_);fill:#C62127;}
	.st30{clip-path:url(#SVGID_48_);fill:none;stroke:#1C100C;stroke-width:3;stroke-miterlimit:10;}
	.st31{clip-path:url(#SVGID_48_);fill:#1C100C;}
	.st32{clip-path:url(#SVGID_50_);}
	.st33{clip-path:url(#SVGID_52_);}
	.st34{opacity:0.1;}
	.st35{clip-path:url(#SVGID_54_);fill:#D36380;}
	.st36{clip-path:url(#SVGID_57_);}
	.st37{clip-path:url(#SVGID_58_);}
	.st38{clip-path:url(#SVGID_60_);fill:#D36380;}
	.st39{clip-path:url(#SVGID_62_);fill:#341C0F;}
	.st40{clip-path:url(#SVGID_64_);}
	.st41{clip-path:url(#SVGID_68_);}
	.st42{clip-path:url(#SVGID_69_);}
	.st43{clip-path:url(#SVGID_70_);fill:#A09F9F;}
	.st44{clip-path:url(#SVGID_70_);fill:#404040;}
	.st45{clip-path:url(#SVGID_70_);fill:#545554;}
</style>
<g id="圖層_2" class="st0">
	<circle class="st1" cx="250" cy="250" r="207.5"/>
</g>
<g>
	<g>
		<g>
			<g>
				<defs>
					<rect id="SVGID_1_" x="14.4" width="460" height="382.4"/>
				</defs>
				<clipPath id="SVGID_2_">
					<use xlink:href="#SVGID_1_"  style="overflow:visible;"/>
				</clipPath>
				<g class="st2">
					<g>
						<defs>
							<rect id="SVGID_3_" x="14.4" width="460" height="382.4"/>
						</defs>
						<clipPath id="SVGID_4_">
							<use xlink:href="#SVGID_3_"  style="overflow:visible;"/>
						</clipPath>
						<g class="st3">
							<g>
								<defs>
									<rect id="SVGID_5_" x="14.4" width="460" height="382.4"/>
								</defs>
								<defs>
									<rect id="SVGID_6_" x="14.4" width="460" height="382.4"/>
								</defs>
								<clipPath id="SVGID_7_">
									<use xlink:href="#SVGID_5_"  style="overflow:visible;"/>
								</clipPath>
								<clipPath id="SVGID_8_" class="st4">
									<use xlink:href="#SVGID_6_"  style="overflow:visible;"/>
								</clipPath>
								<path class="st5" d="M252,278c-62.8,46.2-164.4,22.2-140.4,14.8l22.2-16.6C87.6,296.5,58,261.4,58,261.4
									c16.6,3.7,27.7,0,27.7,0c-14.8-1.8-36.9-42.5-36.9-42.5s20.3,10.9,38.8,0c48-48-1.8-57.3,44.3-121.9
									C178.1,32.3,252,49,252,49"/>
								<path class="st5" d="M250.2,49c6.4-1.4,67.5-25.5,120.1,48c46.2,64.7-3.7,73.9,44.3,121.9c18.5,10.9,38.8,0,38.8,0
									s-22.2,40.6-36.9,42.5c0,0,11.1,3.7,27.7,0c0,0-29.6,35.1-75.7,14.8l22.2,16.6c24,7.4-77.6,31.4-140.4-14.8"/>
							</g>
							<g>
								<defs>
									<rect id="SVGID_9_" x="14.4" width="460" height="382.4"/>
								</defs>
								<clipPath id="SVGID_10_">
									<use xlink:href="#SVGID_9_"  style="overflow:visible;"/>
								</clipPath>
								<g class="st6">
									<g>
										<defs>
											<rect id="SVGID_11_" x="14.4" width="460" height="382.4"/>
										</defs>
										<defs>
											<rect id="SVGID_12_" x="14.4" width="460" height="382.4"/>
										</defs>
										<clipPath id="SVGID_13_">
											<use xlink:href="#SVGID_11_"  style="overflow:visible;"/>
										</clipPath>
										<clipPath id="SVGID_14_" class="st7">
											<use xlink:href="#SVGID_12_"  style="overflow:visible;"/>
										</clipPath>
										<path class="st8" d="M362.6,223.7c0,60.6-66.5,109.8-109.8,109.8c-43.3,0-109.8-49.2-109.8-109.8
											c0-60.6,16.4-109.5,109.8-109.8C346.2,113.6,362.6,163,362.6,223.7"/>
										<path class="st9" d="M362.6,223.7c0,60.6-66.5,109.8-109.8,109.8c-43.3,0-109.8-49.2-109.8-109.8
											c0-60.6,16.4-109.5,109.8-109.8C346.2,113.6,362.6,163,362.6,223.7z"/>
									</g>
									<g>
										<defs>
											<rect id="SVGID_15_" x="14.4" width="460" height="382.4"/>
										</defs>
										<clipPath id="SVGID_16_">
											<use xlink:href="#SVGID_15_"  style="overflow:visible;"/>
										</clipPath>
										<g class="st10">
											<g>
												<defs>
													<rect id="SVGID_17_" x="14.4" width="460" height="382.4"/>
												</defs>
												<defs>
													<rect id="SVGID_18_" x="14.4" width="460" height="382.4"/>
												</defs>
												<defs>
													<rect id="SVGID_19_" x="14.4" width="460" height="382.4"/>
												</defs>
												<defs>
													<rect id="SVGID_20_" x="14.4" width="460" height="382.4"/>
												</defs>
												<defs>
													<rect id="SVGID_21_" x="14.4" width="460" height="382.4"/>
												</defs>
												<defs>
													<rect id="SVGID_22_" x="14.4" width="460" height="382.4"/>
												</defs>
												<defs>
													<rect id="SVGID_23_" x="14.4" width="460" height="382.4"/>
												</defs>
												<defs>
													<rect id="SVGID_24_" x="14.4" width="460" height="382.4"/>
												</defs>
												<defs>
													<rect id="SVGID_25_" x="14.4" width="460" height="382.4"/>
												</defs>
												<defs>
													<rect id="SVGID_26_" x="14.4" width="460" height="382.4"/>
												</defs>
												<defs>
													<rect id="SVGID_27_" x="14.4" width="460" height="382.4"/>
												</defs>
												<defs>
													<rect id="SVGID_28_" x="14.4" width="460" height="382.4"/>
												</defs>
												<defs>
													<rect id="SVGID_29_" x="14.4" width="460" height="382.4"/>
												</defs>
												<defs>
													<rect id="SVGID_30_" x="14.4" width="460" height="382.4"/>
												</defs>
												<defs>
													<rect id="SVGID_31_" x="14.4" width="460" height="382.4"/>
												</defs>
												<defs>
													<rect id="SVGID_32_" x="14.4" width="460" height="382.4"/>
												</defs>
												<clipPath id="SVGID_33_">
													<use xlink:href="#SVGID_17_"  style="overflow:visible;"/>
												</clipPath>
												<clipPath id="SVGID_34_" class="st11">
													<use xlink:href="#SVGID_18_"  style="overflow:visible;"/>
												</clipPath>
												<clipPath id="SVGID_35_" class="st12">
													<use xlink:href="#SVGID_19_"  style="overflow:visible;"/>
												</clipPath>
												<clipPath id="SVGID_36_" class="st13">
													<use xlink:href="#SVGID_20_"  style="overflow:visible;"/>
												</clipPath>
												<clipPath id="SVGID_37_" class="st14">
													<use xlink:href="#SVGID_21_"  style="overflow:visible;"/>
												</clipPath>
												<clipPath id="SVGID_38_" class="st15">
													<use xlink:href="#SVGID_22_"  style="overflow:visible;"/>
												</clipPath>
												<clipPath id="SVGID_39_" class="st16">
													<use xlink:href="#SVGID_23_"  style="overflow:visible;"/>
												</clipPath>
												<clipPath id="SVGID_40_" class="st17">
													<use xlink:href="#SVGID_24_"  style="overflow:visible;"/>
												</clipPath>
												<clipPath id="SVGID_41_" class="st18">
													<use xlink:href="#SVGID_25_"  style="overflow:visible;"/>
												</clipPath>
												<clipPath id="SVGID_42_" class="st19">
													<use xlink:href="#SVGID_26_"  style="overflow:visible;"/>
												</clipPath>
												<clipPath id="SVGID_43_" class="st20">
													<use xlink:href="#SVGID_27_"  style="overflow:visible;"/>
												</clipPath>
												<clipPath id="SVGID_44_" class="st21">
													<use xlink:href="#SVGID_28_"  style="overflow:visible;"/>
												</clipPath>
												<clipPath id="SVGID_45_" class="st22">
													<use xlink:href="#SVGID_29_"  style="overflow:visible;"/>
												</clipPath>
												<clipPath id="SVGID_46_" class="st23">
													<use xlink:href="#SVGID_30_"  style="overflow:visible;"/>
												</clipPath>
												<clipPath id="SVGID_47_" class="st24">
													<use xlink:href="#SVGID_31_"  style="overflow:visible;"/>
												</clipPath>
												<clipPath id="SVGID_48_" class="st25">
													<use xlink:href="#SVGID_32_"  style="overflow:visible;"/>
												</clipPath>
												<path class="st26" d="M219.7,194.4c-9.2-13.3-37.3-17.6-45.7-1.3c-1.9,3.7,3.7,7,5.6,3.3c6-11.6,27.9-8.2,34.5,1.3
													C216.5,201,222.1,197.8,219.7,194.4"/>
												<path class="st26" d="M214.3,227.9c0,8.8-5.8,15.9-12.9,15.9s-12.9-7.1-12.9-15.9s5.8-15.9,12.9-15.9
													S214.3,219.2,214.3,227.9"/>
												<path class="st27" d="M197.5,221.5c0,1.6-1.3,2.9-2.9,2.9c-1.6,0-2.9-1.3-2.9-2.9c0-1.6,1.3-2.9,2.9-2.9
													C196.2,218.6,197.5,219.9,197.5,221.5"/>
												<circle class="st28" cx="194.6" cy="221.5" r="2.9"/>
												<path class="st26" d="M189.7,221.1c-3.2-0.1-5.9-2.6-7.8-4.9c-0.7-0.9-4,0.7-3.7,1c2.3,2.9,5.3,5.2,9.1,5.4
													c0.9,0,1.9-0.3,2.6-0.7C190.5,221.5,190.4,221.2,189.7,221.1"/>
												<path class="st26" d="M192.8,217.6c-2.6-0.7-4.1-3-5.1-5.3c-0.5-1.3-4.2-0.2-3.7,1c1.3,3.1,3.3,5.4,6.5,6.3
													c0.8,0.2,2-0.1,2.6-0.7C193.8,218.4,193.6,217.8,192.8,217.6"/>
												<path class="st29" d="M232.4,277.5H272c0,0-3.9,25.2-19.8,25.2C236.3,302.7,232.4,277.5,232.4,277.5"/>
												<path class="st26" d="M292.1,197.6c6.6-9.5,28.6-12.9,34.5-1.3c1.9,3.7,7.5,0.4,5.6-3.3c-8.4-16.3-36.5-12-45.7,1.3
													C284.2,197.8,289.8,201,292.1,197.6"/>
												<path class="st26" d="M291.9,227.9c0,8.8,5.8,15.9,12.9,15.9c7.1,0,12.9-7.1,12.9-15.9S312,212,304.8,212
													C297.7,212,291.9,219.2,291.9,227.9"/>
												<path class="st27" d="M308.7,221.5c0,1.6,1.3,2.9,2.9,2.9s2.9-1.3,2.9-2.9c0-1.6-1.3-2.9-2.9-2.9
													S308.7,219.9,308.7,221.5"/>
												<circle class="st28" cx="311.6" cy="221.5" r="2.9"/>
												<path class="st26" d="M316.5,222.6c4.7-0.2,8.6-2.6,11.5-6.2c0.4-0.5-1.4-0.3-1.5-0.3c-0.7,0.1-1.7,0.4-2.2,1
													c-1.2,1.5-3.3,4-5.3,4.1c-0.9,0-1.9,0.2-2.7,0.7C315.8,222.2,315.8,222.6,316.5,222.6"/>
												<path class="st26" d="M314.8,219.6c3.7-1,6-3.5,7.4-7c0.3-0.8-1.2-0.8-1.6-0.8c-0.8,0.1-1.8,0.5-2.1,1.3
													c-0.8,1.9-2.1,4.1-4.2,4.7c-0.5,0.1-1.8,0.7-1.6,1.4C312.9,219.9,314.3,219.7,314.8,219.6"/>
												<circle class="st30" cx="198" cy="234" r="34.4"/>
												<circle class="st30" cx="305.3" cy="234" r="34.4"/>
												<path class="st31" d="M236.8,227.9c3.8-10.1,24.5-8.6,29.7-0.5c2.2,3.5,7.8,0.3,5.6-3.3c-8.3-13.1-35.6-13.5-41.5,2.1
													C229.1,230.1,235.4,231.8,236.8,227.9"/>
											</g>
											<g>
												<defs>
													<rect id="SVGID_49_" x="14.4" width="460" height="382.4"/>
												</defs>
												<clipPath id="SVGID_50_">
													<use xlink:href="#SVGID_49_"  style="overflow:visible;"/>
												</clipPath>
												<g class="st32">
													<g>
														<defs>
															<rect id="SVGID_51_" x="14.4" width="460" height="382.4"/>
														</defs>
														<clipPath id="SVGID_52_">
															<use xlink:href="#SVGID_51_"  style="overflow:visible;"/>
														</clipPath>
														<g id="圖層_1" class="st33">
															<g class="st34">
																<g>
																	<defs>
																		<rect id="SVGID_53_" x="164.9" y="200.9" width="66.2" height="66.2"/>
																	</defs>
																	<clipPath id="SVGID_54_">
																		<use xlink:href="#SVGID_53_"  style="overflow:visible;"/>
																	</clipPath>
																	<path class="st35" d="M231.1,234c0,18.3-14.8,33.1-33.1,33.1s-33.1-14.8-33.1-33.1s14.8-33.1,33.1-33.1
																		S231.1,215.7,231.1,234"/>
																</g>
															</g>
															<g>
																<defs>
																	<rect id="SVGID_55_" x="14.4" width="460" height="382.4"/>
																</defs>
																<defs>
																	<rect id="SVGID_56_" x="14.4" width="460" height="382.4"/>
																</defs>
																<clipPath id="SVGID_57_">
																	<use xlink:href="#SVGID_55_"  style="overflow:visible;"/>
																</clipPath>
																<clipPath id="SVGID_58_" class="st36">
																	<use xlink:href="#SVGID_56_"  style="overflow:visible;"/>
																</clipPath>
																<g class="st37">
																	<g class="st34">
																		<g>
																			<defs>
																				<rect id="SVGID_59_" x="272.2" y="200.6" width="66.5" height="66.5"/>
																			</defs>
																			<clipPath id="SVGID_60_">
																				<use xlink:href="#SVGID_59_"  style="overflow:visible;"/>
																			</clipPath>
																			<path class="st38" d="M338.8,233.9c0,18.4-14.9,33.3-33.3,33.3s-33.3-14.9-33.3-33.3s14.9-33.3,33.3-33.3
																				S338.8,215.5,338.8,233.9"/>
																		</g>
																	</g>
																</g>
																<g class="st37">
																	<g>
																		<defs>
																			<rect id="SVGID_61_" x="14.4" width="460" height="382.4"/>
																		</defs>
																		<clipPath id="SVGID_62_">
																			<use xlink:href="#SVGID_61_"  style="overflow:visible;"/>
																		</clipPath>
																		<path class="st39" d="M297.1,112.9c0,0-29.6,68.4-66.5,86.8c0,0,16.6-25.9,14.8-43.4c0,0-16.6,30.5-33.3,43.4
																			c0,0,15.2-31.1,11.1-51.7c0,0-33.3,49.9-62.8,61c0,0-18.5,11.1-22.2,14.8C138.2,223.7,108.7,90.7,297.1,112.9"/>
																	</g>
																	<g>
																		<defs>
																			<rect id="SVGID_63_" x="14.4" width="460" height="382.4"/>
																		</defs>
																		<clipPath id="SVGID_64_">
																			<use xlink:href="#SVGID_63_"  style="overflow:visible;"/>
																		</clipPath>
																		<g class="st40">
																			<g>
																				<defs>
																					<rect id="SVGID_65_" x="14.4" width="460" height="382.4"/>
																				</defs>
																				<defs>
																					<rect id="SVGID_66_" x="14.4" width="460" height="382.4"/>
																				</defs>
																				<defs>
																					<rect id="SVGID_67_" x="14.4" width="460" height="382.4"/>
																				</defs>
																				<clipPath id="SVGID_68_">
																					<use xlink:href="#SVGID_65_"  style="overflow:visible;"/>
																				</clipPath>
																				<clipPath id="SVGID_69_" class="st41">
																					<use xlink:href="#SVGID_66_"  style="overflow:visible;"/>
																				</clipPath>
																				<clipPath id="SVGID_70_" class="st42">
																					<use xlink:href="#SVGID_67_"  style="overflow:visible;"/>
																				</clipPath>
																				<path class="st43" d="M369.5,243.9c0,0-14.9,61.8-80.2,61.8v-8.2c0,0,51.7,8.5,73.3-53.6H369.5z"/>
																				<path class="st44" d="M378.6,241.7c0,4.7-2.6,8.8-6.5,10.9c-1.7,0.9-3.7,1.4-5.8,1.4c-6.8,0-12.3-5.5-12.3-12.3
																					v-36c0-6.8,5.5-12.3,12.3-12.3c6.8,0,12.3,5.5,12.3,12.3V241.7z"/>
																				<path class="st45" d="M297.1,301.9c0,6.5-6.5,11.8-14.5,11.8c-8,0-14.5-5.3-14.5-11.8c0-6.5,6.5-11.8,14.5-11.8
																					C290.6,290.1,297.1,295.4,297.1,301.9"/>
																			</g>
																		</g>
																	</g>
																</g>
															</g>
														</g>
													</g>
												</g>
											</g>
										</g>
									</g>
								</g>
							</g>
						</g>
					</g>
				</g>
			</g>
		</g>
	</g>
</g>
</svg>
