<?xml version="1.0" encoding="utf-8"?>
<!-- Generator: Adobe Illustrator 21.0.0, SVG Export Plug-In . SVG Version: 6.00 Build 0)  -->
<svg version="1.1" id="Layer_1" xmlns="http://www.w3.org/2000/svg" xmlns:xlink="http://www.w3.org/1999/xlink" x="0px" y="0px"
	 width="500px" height="500px" viewBox="0 0 500 500" style="enable-background:new 0 0 500 500;" xml:space="preserve">
<style type="text/css">
	.st0{fill:none;stroke:#EA8C55;stroke-width:10;stroke-miterlimit:10;}
	.st1{fill:#EA8C55;}
</style>
<g id="圖層_1">
</g>
<g id="圖層_2">
	<circle class="st0" cx="250" cy="250" r="207.5"/>
</g>
<g id="圖層_3">
	<circle class="st1" cx="117.1" cy="172.6" r="23.5"/>
	<path class="st1" d="M390,184.1c0,6.6-5.4,12-12,12H183.3c-6.6,0-12-5.4-12-12v-23c0-6.6,5.4-12,12-12H378c6.6,0,12,5.4,12,12
		V184.1z"/>
	<circle class="st1" cx="117.1" cy="251" r="23.5"/>
	<path class="st1" d="M390,261.5c0,6.6-5.4,12-12,12H183.3c-6.6,0-12-5.4-12-12v-23c0-6.6,5.4-12,12-12H378c6.6,0,12,5.4,12,12
		V261.5z"/>
	<circle class="st1" cx="117.1" cy="327.8" r="23.5"/>
	<path class="st1" d="M390,339.3c0,6.6-5.4,12-12,12H183.3c-6.6,0-12-5.4-12-12v-23c0-6.6,5.4-12,12-12H378c6.6,0,12,5.4,12,12
		V339.3z"/>
</g>
</svg>
