<?xml version="1.0" encoding="utf-8"?>
<!-- Generator: Adobe Illustrator 16.0.0, SVG Export Plug-In . SVG Version: 6.00 Build 0)  -->
<!DOCTYPE svg PUBLIC "-//W3C//DTD SVG 1.1//EN" "http://www.w3.org/Graphics/SVG/1.1/DTD/svg11.dtd">
<svg version="1.1" xmlns="http://www.w3.org/2000/svg" xmlns:xlink="http://www.w3.org/1999/xlink" x="0px" y="0px"
	 width="355.714px" height="295.714px" viewBox="0 0 355.714 295.714" enable-background="new 0 0 355.714 295.714"
	 xml:space="preserve">
<g id="圖層_2">
	<path fill="#321C10" d="M183.713,214.999c-48.571,35.714-127.143,17.143-108.571,11.429l17.143-12.857
		c-35.714,15.714-58.571-11.429-58.571-11.429c12.857,2.857,21.429,0,21.429,0c-11.429-1.429-28.571-32.857-28.571-32.857
		s15.714,8.436,30,0c37.143-37.143-1.429-44.286,34.286-94.286s92.857-37.143,92.857-37.143"/>
	<path fill="#321C10" stroke="#FFFFFF" stroke-miterlimit="10" d="M182.336,37.856c4.922-1.108,52.22-19.749,92.856,37.143
		c35.715,50-2.857,57.142,34.286,94.286c14.286,8.436,30,0,30,0s-17.143,31.429-28.571,32.857c0,0,8.571,2.857,21.429,0
		c0,0-22.857,27.144-58.571,11.429l17.143,12.857c18.571,5.714-60,24.285-108.571-11.43"/>
</g>
<g id="圖層_3">
	<path fill="#F6E2D0" stroke="#FFFFFF" stroke-miterlimit="10" d="M269.229,172.963c0,46.885-51.414,84.893-84.893,84.893
		c-33.479,0-84.893-38.008-84.893-84.893s12.658-84.681,84.893-84.894S269.229,126.078,269.229,172.963z"/>
</g>
<g id="圖層_5">
	<g>
		<g>
			<path fill="#321C10" d="M158.729,150.309c-7.094-10.291-28.852-13.59-35.317-1c-1.47,2.862,2.844,5.393,4.317,2.523
				c4.603-8.964,21.596-6.379,26.683,1C156.229,155.468,160.565,152.972,158.729,150.309L158.729,150.309z"/>
		</g>
	</g>
	<ellipse fill="#321C10" cx="144.571" cy="176.267" rx="10" ry="12.304"/>
	<circle fill="#FFFFFF" stroke="#000000" stroke-miterlimit="10" cx="139.321" cy="171.321" r="2.25"/>
	<g>
		<g>
			<path fill="#321C10" d="M135.518,171.007c-2.445-0.101-4.571-1.987-5.998-3.824c-0.524-0.675-3.075,0.549-2.897,0.776
				c1.744,2.246,4.068,4.055,7.002,4.176c0.676,0.028,1.471-0.205,2.049-0.549C136.154,171.299,136.053,171.029,135.518,171.007
				L135.518,171.007z"/>
		</g>
	</g>
	<g>
		<g>
			<path fill="#321C10" d="M137.959,168.29c-1.986-0.538-3.193-2.301-3.94-4.107c-0.416-1.006-3.27-0.123-2.897,0.776
				c0.978,2.365,2.528,4.207,5.06,4.893c0.651,0.176,1.555-0.115,2.049-0.549C138.714,168.878,138.53,168.444,137.959,168.29
				L137.959,168.29z"/>
		</g>
	</g>
	<path fill="#C62127" d="M168.571,214.571h30.64c0,0-3,19.5-15.32,19.5S168.571,214.571,168.571,214.571z"/>
	<g>
		<g>
			<path fill="#321C10" d="M214.729,152.833c5.087-7.379,22.08-9.964,26.684-1c1.473,2.869,5.787,0.339,4.316-2.523
				c-6.465-12.59-28.223-9.291-35.316,1C208.577,152.972,212.913,155.468,214.729,152.833L214.729,152.833z"/>
		</g>
	</g>
	<ellipse fill="#321C10" cx="224.571" cy="176.267" rx="10" ry="12.304"/>
	<circle fill="#FFFFFF" stroke="#000000" stroke-miterlimit="10" cx="229.821" cy="171.321" r="2.25"/>
	<g>
		<g>
			<path fill="#321C10" d="M233.624,172.135c3.613-0.149,6.683-2.009,8.874-4.83c0.304-0.391-1.084-0.244-1.147-0.232
				c-0.561,0.104-1.335,0.286-1.706,0.764c-0.89,1.146-2.539,3.104-4.126,3.17c-0.702,0.029-1.439,0.186-2.05,0.549
				C233.022,171.822,233.059,172.158,233.624,172.135L233.624,172.135z"/>
		</g>
	</g>
	<g>
		<g>
			<path fill="#321C10" d="M232.263,169.787c2.83-0.767,4.658-2.745,5.756-5.4c0.258-0.623-0.964-0.646-1.248-0.61
				c-0.621,0.079-1.391,0.355-1.648,0.978c-0.614,1.484-1.588,3.151-3.244,3.6c-0.405,0.11-1.418,0.503-1.257,1.104
				C230.783,170.059,231.858,169.897,232.263,169.787L232.263,169.787z"/>
		</g>
	</g>
	<circle fill="none" stroke="#1C100C" stroke-width="3" stroke-miterlimit="10" cx="141.958" cy="180.958" r="26.613"/>
	<circle fill="none" stroke="#1C100C" stroke-width="3" stroke-miterlimit="10" cx="224.958" cy="180.958" r="26.613"/>
	<g>
		<g>
			<path fill="#1C100C" d="M171.981,176.235c2.967-7.825,18.978-6.619,22.931-0.403c1.725,2.712,6.053,0.206,4.317-2.523
				c-6.428-10.108-27.516-10.414-32.069,1.597C166.015,177.927,170.85,179.22,171.981,176.235L171.981,176.235z"/>
		</g>
	</g>
</g>
<g id="圖層_6">
	<circle opacity="0.1" fill="#D36380" cx="141.958" cy="180.958" r="25.613"/>
	<circle opacity="0.1" fill="#D36380" cx="225.071" cy="180.844" r="25.726"/>
</g>
<g id="圖層_7">
</g>
<g id="圖層_4">
	<path fill="#331C0F" d="M218.571,87.285c0,0-22.857,52.857-51.429,67.143c0,0,12.857-20,11.429-33.572
		c0,0-12.857,23.572-25.714,33.572c0,0,11.745-24.077,8.571-40c0,0-25.714,38.572-48.571,47.143c0,0-14.286,8.571-17.143,11.428
		C95.713,172.999,72.857,70.142,218.571,87.285z"/>
	<path fill="#321C10" d="M218.571,87.285"/>
</g>
<g id="圖層_8">
	<path fill="#A09F9F" d="M274.571,188.571c0,0-11.5,47.789-62,47.789v-6.371c0,0,39.941,6.582,56.658-41.418H274.571z"/>
	<path fill="#3F403F" d="M281.571,186.898c0,3.639-2.046,6.8-5.051,8.396c-1.327,0.705-2.842,1.104-4.449,1.104l0,0
		c-5.247,0-9.5-4.253-9.5-9.5v-27.873c0-5.247,4.253-9.5,9.5-9.5l0,0c5.247,0,9.5,4.253,9.5,9.5V186.898z"/>
	<ellipse fill="#545554" cx="207.371" cy="233.446" rx="11.2" ry="9.125"/>
</g>
</svg>
