<?xml version="1.0" encoding="utf-8"?>
<!-- Generator: Adobe Illustrator 21.0.0, SVG Export Plug-In . SVG Version: 6.00 Build 0)  -->
<svg version="1.1" id="圖層_1" xmlns="http://www.w3.org/2000/svg" xmlns:xlink="http://www.w3.org/1999/xlink" x="0px" y="0px"
	 width="500px" height="500px" viewBox="0 0 500 500" style="enable-background:new 0 0 500 500;" xml:space="preserve">
<style type="text/css">
	.st0{fill:#303030;}
</style>
<path class="st0" d="M292.7,250L456.5,83.1c21.9-45.3-22.9-58-22.9-58L263,196.1c-4.8,4.7-9.1,9.1-13,13.4c-4-4.2-8.2-8.7-13-13.4
	L66.5,25.1c0,0-44.9,12.7-22.8,58L207.3,250L43.5,416.9c-21.9,45.3,22.9,58,22.9,58l170.6-171c4.8-4.7,9.1-9.1,13-13.4
	c4,4.2,8.2,8.7,13,13.4l170.6,171c0,0,44.9-12.7,22.8-58L292.7,250z"/>
</svg>
