<?xml version="1.0" encoding="utf-8"?>
<!-- Generator: Adobe Illustrator 21.0.0, SVG Export Plug-In . SVG Version: 6.00 Build 0)  -->
<svg version="1.1" id="Layer_1" xmlns="http://www.w3.org/2000/svg" xmlns:xlink="http://www.w3.org/1999/xlink" x="0px" y="0px"
	 width="500px" height="500px" viewBox="0 0 500 500" style="enable-background:new 0 0 500 500;" xml:space="preserve">
<style type="text/css">
	.st0{fill:none;stroke:#5C6784;stroke-width:10;stroke-miterlimit:10;}
	.st1{fill:#5C6784;}
</style>
<g id="圖層_1">
	<circle class="st0" cx="250" cy="250" r="207.5"/>
	<path class="st1" d="M149,130.8c0,0-8.8,7.9-13.1,41.2c0,0,8.8,162,160.2,215.4c0,0,28,2.4,64.8-17.5c0,0,10.5-6.1,19.3-22.8
		c0,0-17.5-28-48.2-41.2l-30.6,22.8c0,0-77.9-36.8-110.3-127l26.3-19.3c0,0-6.1-28.9-35.9-56C181.4,126.4,169.1,123.8,149,130.8"/>
</g>
<g id="圖層_2">
</g>
</svg>
