<?xml version="1.0" encoding="utf-8"?>
<!-- Generator: Adobe Illustrator 16.0.0, SVG Export Plug-In . SVG Version: 6.00 Build 0)  -->
<!DOCTYPE svg PUBLIC "-//W3C//DTD SVG 1.1//EN" "http://www.w3.org/Graphics/SVG/1.1/DTD/svg11.dtd">
<svg version="1.1" id="圖層_1" xmlns="http://www.w3.org/2000/svg" xmlns:xlink="http://www.w3.org/1999/xlink" x="0px" y="0px"
	 width="720px" height="576px" viewBox="0 0 720 576" enable-background="new 0 0 720 576" xml:space="preserve">
<circle fill="none" stroke="#303030" stroke-width="10" stroke-miterlimit="10" cx="360.613" cy="287.938" r="207.143"/>
<g>
	<g>
		<path fill="#303030" d="M237.367,207.061c45.029-0.177,90.058-0.354,135.087-0.532c41.366-0.163,82.731-0.326,124.097-0.488
			c19.342-0.076,19.35-30.076,0-30c-45.029,0.177-90.059,0.354-135.087,0.532c-41.366,0.163-82.731,0.326-124.097,0.488
			C218.025,177.137,218.018,207.137,237.367,207.061L237.367,207.061z"/>
	</g>
</g>
<g>
	<g>
		<path fill="#303030" d="M237.367,303.061c49.256-0.248,98.513-0.497,147.769-0.746c18.044-0.091,36.087-0.183,54.13-0.273
			c19.341-0.098,19.351-30.098,0-30c-49.256,0.249-98.513,0.498-147.769,0.747c-18.043,0.091-36.086,0.182-54.129,0.273
			C218.026,273.159,218.017,303.159,237.367,303.061L237.367,303.061z"/>
	</g>
</g>
<g>
	<g>
		<path fill="#303030" d="M237.367,401.428c45.029-0.177,90.058-0.354,135.087-0.531c41.366-0.163,82.731-0.325,124.097-0.488
			c19.342-0.076,19.35-30.076,0-30c-45.029,0.177-90.059,0.354-135.087,0.531c-41.366,0.163-82.731,0.325-124.097,0.488
			C218.025,371.504,218.018,401.504,237.367,401.428L237.367,401.428z"/>
	</g>
</g>
</svg>
