<?xml version="1.0" encoding="utf-8"?>
<!-- Generator: Adobe Illustrator 16.0.0, SVG Export Plug-In . SVG Version: 6.00 Build 0)  -->
<!DOCTYPE svg PUBLIC "-//W3C//DTD SVG 1.1//EN" "http://www.w3.org/Graphics/SVG/1.1/DTD/svg11.dtd">
<svg version="1.1" xmlns="http://www.w3.org/2000/svg" xmlns:xlink="http://www.w3.org/1999/xlink" x="0px" y="0px" width="720px"
	 height="576px" viewBox="0 0 720 576" enable-background="new 0 0 720 576" xml:space="preserve">
<g id="圖層_1">
</g>
<g id="圖層_2">
	<circle fill="none" stroke="#EA8C55" stroke-width="10" stroke-miterlimit="10" cx="343.613" cy="293.938" r="207.143"/>
</g>
<g id="圖層_3">
	<circle fill="#EA8C55" cx="210.959" cy="216.673" r="23.469"/>
	<path fill="#EA8C55" d="M483.408,228.143c0,6.627-5.373,12-12,12H277.041c-6.627,0-12-5.373-12-12v-22.939c0-6.627,5.373-12,12-12
		h194.367c6.627,0,12,5.373,12,12V228.143z"/>
	<circle fill="#EA8C55" cx="210.959" cy="294.959" r="23.469"/>
	<path fill="#EA8C55" d="M483.408,305.408c0,6.627-5.373,12-12,12H277.041c-6.627,0-12-5.373-12-12v-22.94c0-6.627,5.373-12,12-12
		h194.367c6.627,0,12,5.373,12,12V305.408z"/>
	<circle fill="#EA8C55" cx="210.959" cy="371.612" r="23.469"/>
	<path fill="#EA8C55" d="M483.408,383.082c0,6.627-5.373,12-12,12H277.041c-6.627,0-12-5.373-12-12v-22.939c0-6.628,5.373-12,12-12
		h194.367c6.627,0,12,5.372,12,12V383.082z"/>
</g>
</svg>
