<?xml version="1.0" encoding="utf-8"?>
<!-- Generator: Adobe Illustrator 19.1.0, SVG Export Plug-In . SVG Version: 6.00 Build 0)  -->
<svg version="1.1" id="Layer_1" xmlns="http://www.w3.org/2000/svg" xmlns:xlink="http://www.w3.org/1999/xlink" x="0px" y="0px"
	 width="350px" height="350px" viewBox="-682.1 258.1 350 350" style="enable-background:new -682.1 258.1 350 350;"
	 xml:space="preserve">
<style type="text/css">
	.st0{fill:#FFFFFF;}
	.st1{fill:#321C10;}
	.st2{fill:#F6E2D0;stroke:#FFFFFF;stroke-miterlimit:10;}
	.st3{fill:#FFFFFF;stroke:#000000;stroke-miterlimit:10;}
	.st4{fill:#C62127;}
	.st5{fill:none;stroke:#1C100C;stroke-width:3;stroke-miterlimit:10;}
	.st6{fill:#1C100C;}
	.st7{opacity:0.1;fill:#D36380;enable-background:new    ;}
	.st8{fill:#331C0F;}
	.st9{fill:#A09F9F;}
	.st10{fill:#3F403F;}
	.st11{fill:#545554;}
</style>
<rect x="-682.1" y="258.1" class="st0" width="350" height="350"/>
<g id="圖層_2">
	<path class="st1" d="M-506.5,495.2c-48.6,35.7-127.1,17.1-108.6,11.4l17.1-12.9c-35.7,15.7-58.6-11.4-58.6-11.4
		c12.9,2.9,21.4,0,21.4,0c-11.4-1.4-28.6-32.9-28.6-32.9s15.7,8.4,30,0c37.1-37.1-1.4-44.3,34.3-94.3c35.7-50,92.9-37.1,92.9-37.1"
		/>
	<path class="st1" d="M-507.8,318c4.9-1.1,52.2-19.7,92.9,37.1c35.7,50-2.9,57.1,34.3,94.3c14.3,8.4,30,0,30,0s-17.1,31.4-28.6,32.9
		c0,0,8.6,2.9,21.4,0c0,0-22.9,27.1-58.6,11.4l17.1,12.9c18.6,5.7-60,24.3-108.6-11.4"/>
</g>
<g id="圖層_3">
	<path class="st2" d="M-420.9,453.1c0,46.9-51.4,84.9-84.9,84.9s-84.9-38-84.9-84.9s12.7-84.7,84.9-84.9
		C-433.6,368-420.9,406.3-420.9,453.1z"/>
</g>
<g id="圖層_5">
	<g>
		<g>
			<path class="st1" d="M-531.4,430.5c-7.1-10.3-28.9-13.6-35.3-1c-1.5,2.9,2.8,5.4,4.3,2.5c4.6-9,21.6-6.4,26.7,1
				C-533.9,435.7-529.6,433.2-531.4,430.5L-531.4,430.5z"/>
		</g>
	</g>
	<ellipse class="st1" cx="-545.6" cy="456.4" rx="10" ry="12.3"/>
	<circle class="st3" cx="-550.8" cy="451.5" r="2.2"/>
	<g>
		<g>
			<path class="st1" d="M-554.7,451.2c-2.4-0.1-4.6-2-6-3.8c-0.5-0.7-3.1,0.5-2.9,0.8c1.7,2.2,4.1,4.1,7,4.2c0.7,0,1.5-0.2,2-0.5
				C-554,451.5-554.1,451.2-554.7,451.2L-554.7,451.2z"/>
		</g>
	</g>
	<g>
		<g>
			<path class="st1" d="M-552.2,448.5c-2-0.5-3.2-2.3-3.9-4.1c-0.4-1-3.3-0.1-2.9,0.8c1,2.4,2.5,4.2,5.1,4.9c0.7,0.2,1.6-0.1,2-0.5
				C-551.5,449.1-551.6,448.6-552.2,448.5L-552.2,448.5z"/>
		</g>
	</g>
	<path class="st4" d="M-521.6,494.8h30.6c0,0-3,19.5-15.3,19.5S-521.6,494.8-521.6,494.8z"/>
	<g>
		<g>
			<path class="st1" d="M-475.4,433c5.1-7.4,22.1-10,26.7-1c1.5,2.9,5.8,0.3,4.3-2.5c-6.5-12.6-28.2-9.3-35.3,1
				C-481.6,433.2-477.3,435.7-475.4,433L-475.4,433z"/>
		</g>
	</g>
	<ellipse class="st1" cx="-465.6" cy="456.4" rx="10" ry="12.3"/>
	<circle class="st3" cx="-460.3" cy="451.5" r="2.2"/>
	<g>
		<g>
			<path class="st1" d="M-456.5,452.3c3.6-0.1,6.7-2,8.9-4.8c0.3-0.4-1.1-0.2-1.1-0.2c-0.6,0.1-1.3,0.3-1.7,0.8
				c-0.9,1.1-2.5,3.1-4.1,3.2c-0.7,0-1.4,0.2-2,0.5C-457.1,452-457.1,452.3-456.5,452.3L-456.5,452.3z"/>
		</g>
	</g>
	<g>
		<g>
			<path class="st1" d="M-457.9,450c2.8-0.8,4.7-2.7,5.8-5.4c0.3-0.6-1-0.6-1.2-0.6c-0.6,0.1-1.4,0.4-1.6,1
				c-0.6,1.5-1.6,3.2-3.2,3.6c-0.4,0.1-1.4,0.5-1.3,1.1C-459.4,450.2-458.3,450.1-457.9,450L-457.9,450z"/>
		</g>
	</g>
	<circle class="st5" cx="-548.2" cy="461.1" r="26.6"/>
	<circle class="st5" cx="-465.2" cy="461.1" r="26.6"/>
	<g>
		<g>
			<path class="st6" d="M-518.2,456.4c3-7.8,19-6.6,22.9-0.4c1.7,2.7,6.1,0.2,4.3-2.5c-6.4-10.1-27.5-10.4-32.1,1.6
				C-524.2,458.1-519.3,459.4-518.2,456.4L-518.2,456.4z"/>
		</g>
	</g>
</g>
<g id="圖層_6">
	<circle class="st7" cx="-548.2" cy="461.1" r="25.6"/>
	<circle class="st7" cx="-465.1" cy="461" r="25.7"/>
</g>
<g id="圖層_4">
	<path class="st8" d="M-471.6,367.5c0,0-22.9,52.9-51.4,67.1c0,0,12.9-20,11.4-33.6c0,0-12.9,23.6-25.7,33.6c0,0,11.7-24.1,8.6-40
		c0,0-25.7,38.6-48.6,47.1c0,0-14.3,8.6-17.1,11.4C-594.5,453.2-617.3,350.3-471.6,367.5z"/>
	<path class="st1" d="M-471.6,367.5"/>
</g>
<g id="圖層_8">
	<path class="st9" d="M-415.6,468.8c0,0-11.5,47.8-62,47.8v-6.4c0,0,39.9,6.6,56.7-41.4H-415.6z"/>
	<path class="st10" d="M-408.6,467.1c0,3.6-2,6.8-5.1,8.4c-1.3,0.7-2.8,1.1-4.4,1.1l0,0c-5.2,0-9.5-4.3-9.5-9.5v-27.9
		c0-5.2,4.3-9.5,9.5-9.5l0,0c5.2,0,9.5,4.3,9.5,9.5V467.1z"/>
	<ellipse class="st11" cx="-482.8" cy="513.6" rx="11.2" ry="9.1"/>
</g>
</svg>
