<?xml version="1.0" encoding="utf-8"?>
<!-- Generator: Adobe Illustrator 21.0.0, SVG Export Plug-In . SVG Version: 6.00 Build 0)  -->
<svg version="1.1" id="Layer_1" xmlns="http://www.w3.org/2000/svg" xmlns:xlink="http://www.w3.org/1999/xlink" x="0px" y="0px"
	 width="500px" height="500px" viewBox="0 0 500 500" style="enable-background:new 0 0 500 500;" xml:space="preserve">
<style type="text/css">
	.st0{fill:#7FD134;}
</style>
<g id="圖層_3">
	<circle class="st0" cx="113.3" cy="164.9" r="25.8"/>
	<path class="st0" d="M412.5,177.5c0,7.3-5.9,13.2-13.2,13.2H185.9c-7.3,0-13.2-5.9-13.2-13.2v-25.2c0-7.3,5.9-13.2,13.2-13.2h213.5
		c7.3,0,13.2,5.9,13.2,13.2V177.5z"/>
	<circle class="st0" cx="113.3" cy="250.9" r="25.8"/>
	<path class="st0" d="M412.5,262.4c0,7.3-5.9,13.2-13.2,13.2H185.9c-7.3,0-13.2-5.9-13.2-13.2v-25.2c0-7.3,5.9-13.2,13.2-13.2h213.5
		c7.3,0,13.2,5.9,13.2,13.2V262.4z"/>
	<circle class="st0" cx="113.3" cy="335.1" r="25.8"/>
	<path class="st0" d="M412.5,347.7c0,7.3-5.9,13.2-13.2,13.2H185.9c-7.3,0-13.2-5.9-13.2-13.2v-25.2c0-7.3,5.9-13.2,13.2-13.2h213.5
		c7.3,0,13.2,5.9,13.2,13.2V347.7z"/>
</g>
</svg>
