<?xml version="1.0" encoding="utf-8"?>
<!-- Generator: Adobe Illustrator 16.0.0, SVG Export Plug-In . SVG Version: 6.00 Build 0)  -->
<!DOCTYPE svg PUBLIC "-//W3C//DTD SVG 1.1//EN" "http://www.w3.org/Graphics/SVG/1.1/DTD/svg11.dtd">
<svg version="1.1" xmlns="http://www.w3.org/2000/svg" xmlns:xlink="http://www.w3.org/1999/xlink" x="0px" y="0px" width="720px"
	 height="576px" viewBox="0 0 720 576" enable-background="new 0 0 720 576" xml:space="preserve">
<g id="圖層_1">
	<circle fill="none" stroke="#5C6784" stroke-width="10" stroke-miterlimit="10" cx="359.613" cy="287.938" r="207.143"/>
	<path fill="#5C6784" d="M258.763,168.923c0,0-8.742,7.867-13.112,41.083c0,0,8.742,161.71,159.963,215.031
		c0,0,27.972,2.445,64.685-17.482c0,0,10.489-6.118,19.23-22.727c0,0-17.483-27.971-48.077-41.083l-30.593,22.727
		c0,0-77.796-36.713-110.139-126.746l26.224-19.23c0,0-6.119-28.846-35.839-55.943C291.105,164.552,278.868,161.93,258.763,168.923"
		/>
</g>
<g id="圖層_2">
</g>
</svg>
