<?xml version="1.0" standalone="no"?>
<!DOCTYPE svg PUBLIC "-//W3C//DTD SVG 20010904//EN"
 "http://www.w3.org/TR/2001/REC-SVG-20010904/DTD/svg10.dtd">
<svg version="1.0" xmlns="http://www.w3.org/2000/svg"
 width="700.000000pt" height="700.000000pt" viewBox="0 0 700.000000 700.000000"
 preserveAspectRatio="xMidYMid meet">
<metadata>
Created by potrace 1.11, written by Peter Selinger 2001-2013
</metadata>
<g transform="translate(0.000000,700.000000) scale(0.100000,-0.100000)"
fill="#000000" stroke="none">
<path d="M3815 5870 c-44 -5 -134 -21 -200 -36 -114 -25 -126 -26 -225 -15
-513 55 -1016 -87 -1400 -396 -316 -255 -605 -724 -660 -1073 -5 -36 -10 -174
-10 -308 0 -268 -10 -345 -60 -464 -37 -90 -121 -214 -215 -318 -85 -94 -144
-129 -254 -151 -105 -20 -299 4 -384 48 -16 8 -31 13 -33 10 -7 -7 151 -254
228 -357 101 -134 213 -245 279 -274 l54 -23 -75 -13 c-71 -12 -219 -9 -310 7
l-35 6 25 -28 c42 -45 161 -131 240 -174 255 -136 549 -155 828 -51 29 11 56
20 59 20 11 0 -339 -259 -359 -266 -37 -11 -17 -47 42 -76 158 -79 542 -122
877 -99 251 18 239 4 114 130 -259 259 -432 562 -497 869 -8 42 -18 131 -21
197 l-5 120 119 74 c65 41 164 98 221 128 102 52 217 131 296 202 73 66 84 71
167 71 136 0 284 -64 284 -123 -1 -16 3 -23 8 -18 6 6 19 5 33 -1 34 -16 74 4
74 35 0 13 -4 27 -9 33 -6 5 11 33 46 74 82 94 179 229 259 356 38 62 74 120
81 130 10 16 12 12 12 -27 2 -114 -48 -275 -145 -466 -39 -79 -70 -143 -68
-143 2 0 26 14 54 30 219 129 484 437 717 835 64 109 195 356 205 387 7 19
203 -40 324 -97 338 -158 550 -415 655 -795 20 -72 61 -282 56 -285 -32 -16
-84 -67 -98 -99 -17 -37 -19 -70 -19 -354 0 -334 3 -357 52 -409 l21 -22 -21
-58 c-14 -38 -16 -51 -6 -38 8 10 19 33 25 50 l12 32 46 -16 c25 -9 48 -17 50
-18 8 -5 -104 -202 -156 -276 -76 -105 -190 -222 -280 -284 -40 -28 -111 -87
-158 -131 l-84 -80 97 -9 c160 -13 493 -8 625 11 276 39 446 108 381 153 -85
59 -363 268 -360 270 2 2 27 -6 57 -17 118 -47 216 -64 364 -64 110 1 158 5
222 22 107 28 232 82 310 135 72 49 194 149 189 154 -2 2 -44 -1 -92 -8 -89
-12 -250 -7 -292 8 -19 7 -15 11 35 38 93 48 225 194 360 395 53 79 133 213
133 221 0 3 -38 -8 -85 -23 -161 -54 -338 -47 -465 17 -88 44 -279 286 -334
422 -55 135 -60 168 -61 468 -2 285 -7 334 -46 465 -114 382 -488 873 -843
1107 -171 113 -400 206 -584 238 -110 19 -288 26 -387 15z m-740 -1760 c-8
-111 -33 -236 -75 -370 -41 -130 -38 -127 -93 -90 -55 37 -142 68 -217 78
l-55 8 61 64 c85 90 195 225 289 354 78 108 79 109 87 80 5 -16 6 -72 3 -124z"/>
<path d="M4390 3729 c-116 -10 -230 -61 -304 -134 -50 -51 -59 -87 -27 -105
33 -17 52 -12 85 24 77 82 182 121 316 114 101 -5 163 -34 200 -93 24 -39 57
-46 84 -19 21 21 20 40 -5 80 -60 98 -190 148 -349 133z"/>
<path d="M2543 3486 c-94 -23 -180 -73 -256 -150 -116 -116 -167 -236 -167
-396 0 -160 51 -280 167 -397 112 -112 236 -163 396 -163 302 0 556 257 557
562 0 36 5 60 13 65 7 4 23 25 35 45 59 96 255 118 388 42 23 -13 49 -35 58
-49 9 -14 23 -25 31 -25 12 0 15 -16 15 -81 0 -159 51 -279 167 -396 221 -221
564 -219 788 5 218 218 218 566 0 784 -138 138 -328 196 -517 157 -151 -31
-310 -155 -381 -297 -34 -69 -35 -70 -53 -51 -10 11 -50 36 -90 55 -60 30 -86
37 -157 41 -129 8 -212 -16 -285 -82 l-38 -33 -37 73 c-71 137 -213 251 -363
290 -69 18 -198 18 -271 1z m252 -60 c120 -32 216 -97 290 -197 63 -85 90
-171 90 -289 0 -161 -63 -293 -187 -391 -198 -157 -482 -142 -657 34 -107 108
-151 212 -151 357 0 145 44 249 151 357 117 118 307 171 464 129z m1660 0
c120 -32 216 -97 290 -197 63 -85 90 -171 90 -289 0 -161 -63 -293 -187 -391
-198 -157 -482 -142 -657 34 -107 108 -151 212 -151 357 0 145 44 249 151 357
117 118 307 171 464 129z"/>
<path d="M2465 3270 c-10 -16 27 -70 63 -92 23 -14 30 -24 23 -31 -14 -14 -64
8 -101 46 -27 28 -32 29 -57 18 l-28 -13 37 -33 c35 -33 98 -58 121 -49 9 3
12 -19 12 -78 0 -107 32 -174 102 -218 94 -60 204 -25 260 82 37 71 40 191 6
253 -73 134 -207 166 -296 69 l-26 -28 -26 24 c-13 13 -27 31 -31 42 -6 19
-48 25 -59 8z m195 -134 c0 -23 -30 -41 -48 -30 -23 15 -25 29 -7 48 12 12 21
13 36 6 10 -6 19 -17 19 -24z"/>
<path d="M4264 3266 c-39 -17 -79 -58 -107 -111 -34 -62 -31 -182 6 -253 36
-69 100 -112 167 -112 67 0 131 43 167 112 24 45 28 65 28 136 0 72 2 82 18
82 28 0 89 35 121 69 45 47 6 41 -47 -8 -49 -45 -101 -61 -111 -35 -6 15 17
43 36 44 8 0 58 71 58 82 0 19 -41 6 -57 -18 -10 -14 -26 -35 -37 -46 l-19
-21 -30 33 c-53 57 -127 74 -193 46z m206 -130 c0 -23 -30 -41 -48 -30 -23 15
-25 29 -7 48 12 12 21 13 36 6 10 -6 19 -17 19 -24z"/>
<path d="M3218 2265 c-8 -8 8 -72 33 -142 26 -68 75 -147 115 -185 60 -56 157
-74 232 -43 95 40 182 178 217 343 l7 32 -300 0 c-164 0 -301 -2 -304 -5z"/>
<path d="M3895 2055 c-55 -21 -111 -79 -123 -127 -41 -159 182 -278 343 -184
52 31 95 97 95 146 0 49 -43 115 -96 146 -57 33 -158 42 -219 19z"/>
</g>
</svg>
